<?xml version="1.0" encoding="utf-8"?>
<!-- Generator: Adobe Illustrator 27.5.0, SVG Export Plug-In . SVG Version: 6.00 Build 0)  -->
<svg version="1.1" id="Layer_1" xmlns="http://www.w3.org/2000/svg" xmlns:xlink="http://www.w3.org/1999/xlink" x="0px" y="0px"
	 viewBox="0 0 5818 5415" style="enable-background:new 0 0 5818 5415;" xml:space="preserve">
<style type="text/css">
	.st0{fill:#F79122;}
	.st1{fill:#914572;}
	.st2{opacity:0.5;}
	.st3{font-family:'MyriadPro-Regular';}
	.st4{font-size:13.7885px;}
</style>
<g>
	<g>
		<g>
			<path class="st0" d="M5032.43,2910.5c-6.61,36.74-11.82,73.79-20.06,110.16c-50.81,224.13-186.14,380.78-389.84,480.21
				c-166.84,81.44-344.3,104.82-528.12,88.73c-195.29-17.1-385.08-57.36-566.93-131.96c-11.76-4.82-23.34-10.08-33.34-21.3
				c63.24,7,126.59,13.1,189.69,21.18c150.32,19.26,300.37,46.91,452.57,35.86c242.76-17.63,459.48-98.29,629.17-280.41
				c86.74-93.1,127.75-206.42,138.54-332.47c19.58-228.63-51.34-434.59-155.54-632.39c-78.4-148.83-174.82-285.98-276.64-419.38
				c-14.43-18.91-15.75-32.54-2.07-51.73c19.03-26.69,35.28-55.37,53.17-83.91c3.44,1.75,6.47,2.31,7.85,4.13
				c151.62,200.16,292.3,407.06,390.34,639.84c54.36,129.06,93.25,262.33,105.24,402.58c0.53,6.18,3.92,12.12,5.97,18.17
				C5032.43,2808.71,5032.43,2859.61,5032.43,2910.5z"/>
			<path class="st0" d="M2562.8,291.54c-51.02,48.99-98.83,95.58-147.77,140.96c-5.97,5.54-18.61,7.8-27.07,6.11
				c-87.63-17.48-174.46-39.83-262.64-53.57c-175.49-27.33-351.47-42.94-527.24,1.79C1341.53,452.12,1185.52,647,1180.29,912
				c-3.15,159.72,39.71,311.08,87.86,461.02c37.86,117.9,85.8,231.52,162.06,330.62c49.25,64,107.14,118.52,191.23,129.77
				c32.71,4.37,67.66,0.18,100.5-5.94c129.23-24.07,259.29-35.14,390.62-30.68c214.28,7.28,415.59,64.66,607.57,158.03
				c193.84,94.28,368.57,216,524.66,364.56c48.42,46.08,98.08,90.99,144.32,139.17c19.74,20.57,35.98,46.53,47.15,72.87
				c21.7,51.16-10.08,100.57-65.06,106.84c-49.42,5.64-93.79-9.24-138.85-28.6c-153.7-66.04-302.25-145.27-465.74-186.7
				c-41.91-10.62-84.55-18.65-127.15-26.16c-51.86-9.15-75.24,15.65-59.25,65.72c7.05,22.07,20.09,45.31,37.07,60.65
				c194.92,176.13,424.77,286.63,676.67,354.07c156.99,42.03,317,63.3,479.45,70.33c185.74,8.04,367.85-11.39,548.71-53.93
				c52-12.23,108.08-10,162.22-9.28c33.89,0.45,61.93,19,70.19,55.17c8.15,35.68-3.3,69.18-34.48,85.91
				c-56.9,30.52-115.59,59.06-176.19,81.1c-247.37,89.96-502.8,142.96-765.68,159.89c-546.52,35.2-1063.94-67.76-1541.26-339.63
				c-547.2-311.67-935.44-763.79-1159.48-1353.68c-63.34-166.77-98.61-340.17-90.74-519.6c18.02-411.13,237.35-753.53,698.28-871.97
				c184.38-47.37,371.54-55.17,560.67-37.15c148.99,14.2,294.58,40.5,431.26,104.4C2505.72,262.31,2533.94,277.15,2562.8,291.54z"/>
			<g>
				<path class="st1" d="M4170.74,2061.45c8.74,35.69,18.17,70.78,25.85,106.24c27.46,126.84,41.03,254.31,15.8,383.4
					c-37.63,192.51-164.52,308.11-360.19,330.23c-113.77,12.87-225.34-5.07-337.14-20.23c-42.78-5.8-85.27-14.65-127.38-24.33
					c-96.51-22.18-151.45-90.87-192.76-170.7c43.66,11.49,86.99,26.08,131.51,33.75c47.96,8.26,94.09-2.08,132.43-34.63
					c44.43-37.71,57.26-109.08,31.31-165.99c-29.74-65.25-81.13-112.89-132.32-160.04c-65.08-59.95-131.71-118.27-199.01-175.73
					c-17.55-14.98-13.55-31.42-12.04-48.56c6.53-74.32,11.24-148.99-8.29-221.74c-11.6-43.21-26.01-87.02-47.55-125.92
					c-46.44-83.86-122.59-108.16-211.67-72.03c-70.58,28.63-142.71,47.15-219.54,44.08c-119.36-4.76-222.15-53.39-317.26-120.84
					c-124.16-88.05-224.96-199.83-318.36-318.79c-3.46-4.4-6.3-9.38-8.81-14.4c-1.16-2.31-0.81-5.38-1.73-12.76
					c11.54,1.22,22.59,0.24,31.97,3.72c61.68,22.89,123.22,46.2,184.4,70.39c107.61,42.56,214.82,85.7,329.44,107.2
					c86.01,16.13,166.43,2.83,243.27-37.36c91.58-47.9,164.99-117.77,234.71-192.46c121.45-130.12,255.03-243.62,428.84-297.93
					c45.57-14.24,92.86-25.16,140.18-30.76c27.86-3.3,57.27,7.26,86.07,10.82c15.85,1.96,32.22,5,47.79,3.04
					c124.35-15.68,224.31,37.9,312.83,115.08c118.1,102.96,188.23,238.18,240.15,383.41c44.39,124.15,72.63,252.04,63.59,384.43
					c-3.65,53.48-16.81,107.85-35.08,158.41c-22.25,61.56-70.25,98.74-137.71,106.39
					C4180.48,2057.25,4177.11,2059.19,4170.74,2061.45z"/>
				<path class="st1" d="M3732.46,845.56c-190.87-0.47-344.57-156.13-343.64-348.95c0.81-167.44,129.19-340.35,345.06-341.82
					c197.29-1.34,344.76,153.46,346.94,346.11C4082.96,690.53,3924.15,846.03,3732.46,845.56z"/>
				<path class="st1" d="M2939.59,940.14c-39.18-155.58-245.96-206.29-358.22-97.17c-80.54-86.65-90.76-241.29-23.32-352.95
					c70.97-117.5,212.78-176.17,343.19-141.97c140.25,36.78,233.54,154.54,237.78,300.15
					C3142.65,772.79,3054.11,903.46,2939.59,940.14z"/>
				<path class="st1" d="M2918.03,1050.28c36.03,29.96,71.92,59.8,111.41,92.64c-36.52,37.49-68.94,72.32-103.05,105.41
					c-50.89,49.38-106.59,92.37-171.5,122.37c-60.04,27.75-122.18,35.53-187.16,22.27c-144.7-29.55-278.35-90.1-417.75-146.21
					c63.89-80.61,131.55-153.69,218.35-204.12c48.93-28.43,104.41-45.61,157.07-67.54c13.07-5.44,19.54-1.17,24,13.58
					c23.05,76.06,78.65,118.07,152.97,134.67c78.79,17.6,149.33,0.47,204.42-62.93C2909.17,1057.68,2912.19,1055.5,2918.03,1050.28z
					"/>
				<path class="st1" d="M1860.14,1745.77c58.68-115.96,113.27-223.84,170.76-337.46c21.64,24.14,37.92,42.84,54.78,61.01
					c101.09,108.93,209.79,208.14,345.52,273.47c151.94,73.14,305.49,77.78,461.58,14.01c75.97-31.04,117.17-15.82,154.23,57.73
					c40.19,79.76,47.64,165.35,40.78,252.97c-0.81,10.29-1.71,20.58-3.02,36.19C2720.69,1841.28,2325.37,1690.24,1860.14,1745.77z"
					/>
				<path class="st1" d="M2715.64,818.72c74.14,5.48,125.5,24.77,162.08,73.5c43.78,58.33,31.61,130.98-28.36,172.37
					c-77.67,53.6-198.74,29.18-249.51-50.32c-36.41-57.02-24.09-127.32,33.53-162.89C2661.96,833.73,2696.65,825.99,2715.64,818.72z
					"/>
				<path class="st1" d="M3095.08,2746.72c-168.07-68.75-319.24-158.76-455.87-285.42c108.73,14.06,204.86,44.22,297.92,84.95
					c52.53,22.99,104.98,46.15,157.36,69.47c23.86,10.62,40.06,54.76,28.55,77.84C3114.33,2711.03,3104.9,2728.13,3095.08,2746.72z"
					/>
			</g>
		</g>
	</g>
	<g class="st2">
		<g>
			<g>
				<path d="M444.36,5233.31c2.44,4.27,4.57,9.6,6.4,16.01c1.83,6.4,2.89,12.96,3.2,19.66c-17.99,7.01-38.57,10.52-61.74,10.52
					c-39.03,0-68.45-11.05-88.26-33.16c-19.82-22.1-29.73-51.9-29.73-89.4c0-17.38,2.44-33.53,7.32-48.48
					c4.87-14.93,12.12-27.9,21.72-38.87c9.6-10.98,21.56-19.66,35.9-26.07c14.33-6.4,30.94-9.6,49.85-9.6
					c12.81,0,24.08,0.76,33.84,2.29c9.75,1.53,19.05,3.97,27.9,7.32c0,5.19-0.69,11.2-2.06,18.06c-1.37,6.86-3.28,12.88-5.72,18.06
					c-14.94-5.18-32.01-7.77-51.22-7.77c-23.48,0-41.01,7.77-52.59,23.32c-11.59,15.55-17.38,36.13-17.38,61.74
					c0,29.27,6.55,50.69,19.66,64.25c13.1,13.57,31.1,20.35,53.96,20.35c9.15,0,17.61-0.61,25.38-1.83
					C428.59,5238.5,436.43,5236.36,444.36,5233.31z"/>
				<path d="M630.48,5119.44c0-17.98-4.57-30.48-13.72-37.5c-9.15-7.01-22.41-10.52-39.79-10.52c-10.67,0-20.66,0.84-29.95,2.52
					c-9.3,1.68-18.37,3.89-27.21,6.63c-5.79-10.06-8.69-22.1-8.69-36.13c10.36-3.35,21.79-5.94,34.3-7.77
					c12.5-1.83,24.54-2.74,36.13-2.74c30.48,0,53.65,6.94,69.51,20.81c15.85,13.88,23.78,36.06,23.78,66.54v146.8
					c-10.67,2.44-23.63,4.96-38.87,7.54c-15.25,2.59-30.8,3.89-46.65,3.89c-14.94,0-28.43-1.37-40.47-4.12
					c-12.05-2.74-22.26-7.16-30.64-13.26c-8.39-6.09-14.86-13.87-19.44-23.32c-4.57-9.45-6.86-20.88-6.86-34.3
					c0-13.1,2.67-24.62,8-34.53c5.33-9.9,12.58-18.13,21.72-24.69c9.15-6.55,19.66-11.43,31.56-14.63c11.89-3.2,24.39-4.8,37.5-4.8
					c9.75,0,17.76,0.23,24.01,0.69c6.25,0.46,11.51,0.99,15.78,1.6V5119.44z M630.48,5163.8c-4.57-0.61-10.37-1.21-17.38-1.83
					c-7.02-0.61-12.96-0.91-17.83-0.91c-18.91,0-33.31,3.51-43.22,10.52c-9.91,7.02-14.86,17.69-14.86,32.01
					c0,9.15,1.67,16.31,5.03,21.49c3.35,5.19,7.55,9.15,12.58,11.89c5.03,2.74,10.59,4.42,16.69,5.03
					c6.09,0.61,11.89,0.91,17.38,0.91c7.01,0,14.25-0.38,21.72-1.14c7.47-0.76,14.1-1.9,19.89-3.43V5163.8z"/>
				<path d="M742.98,5039.41c3.35-0.61,6.55-1.06,9.6-1.37c3.04-0.3,6.25-0.46,9.6-0.46c3.35,0,6.7,0.16,10.06,0.46
					c3.35,0.31,6.4,0.77,9.15,1.37c0.92,4.57,1.83,10.6,2.74,18.06c0.91,7.47,1.37,13.8,1.37,18.98
					c6.4-10.36,14.86-19.36,25.38-26.98c10.52-7.62,24.01-11.43,40.47-11.43c2.44,0,4.95,0.08,7.55,0.23
					c2.59,0.16,4.8,0.39,6.63,0.69c0.61,2.74,1.06,5.64,1.37,8.69c0.3,3.05,0.46,6.25,0.46,9.6c0,3.66-0.23,7.47-0.69,11.43
					c-0.46,3.96-0.99,7.77-1.6,11.43c-2.44-0.61-4.96-0.91-7.55-0.91c-2.59,0-4.65,0-6.17,0c-8.23,0-16.09,1.14-23.55,3.43
					c-7.47,2.29-14.18,6.33-20.12,12.12c-5.95,5.8-10.68,13.72-14.18,23.78c-3.51,10.06-5.26,23.02-5.26,38.87v116.61
					c-3.36,0.61-7.09,1.06-11.2,1.37c-4.11,0.3-7.85,0.46-11.2,0.46c-3.36,0-7.09-0.16-11.2-0.46c-4.12-0.31-8-0.77-11.66-1.37
					V5039.41z"/>
				<path d="M940.08,5167.91c0.61,25.61,7.24,44.36,19.89,56.25c12.65,11.89,31.33,17.84,56.02,17.84
					c21.64,0,42.22-3.81,61.74-11.43c2.44,4.57,4.42,10.14,5.94,16.69c1.52,6.56,2.44,13.03,2.74,19.44
					c-10.06,4.27-21.11,7.47-33.15,9.6c-12.05,2.13-25.38,3.2-40.01,3.2c-21.34,0-39.64-2.97-54.88-8.92
					c-15.25-5.94-27.82-14.33-37.73-25.15c-9.91-10.82-17.15-23.62-21.72-38.41c-4.57-14.78-6.86-31.02-6.86-48.7
					c0-17.38,2.21-33.61,6.63-48.7c4.42-15.09,11.2-28.2,20.35-39.33c9.15-11.13,20.65-19.96,34.53-26.52
					c13.87-6.55,30.25-9.83,49.16-9.83c16.16,0,30.33,2.74,42.53,8.23c12.19,5.49,22.41,13.03,30.64,22.64
					c8.23,9.6,14.48,21.04,18.75,34.3c4.27,13.26,6.4,27.67,6.4,43.22c0,4.27-0.16,8.77-0.46,13.49c-0.31,4.73-0.62,8.77-0.91,12.12
					H940.08z M1056.24,5134.07c0-8.53-1.14-16.69-3.43-24.46c-2.29-7.77-5.64-14.56-10.06-20.35c-4.42-5.79-10.06-10.44-16.92-13.95
					c-6.86-3.5-15.02-5.26-24.47-5.26c-18.6,0-32.85,5.65-42.76,16.92c-9.91,11.28-15.93,26.98-18.06,47.1H1056.24z"/>
				<path d="M1425.28,5233.31c2.44,4.27,4.57,9.6,6.4,16.01c1.83,6.4,2.89,12.96,3.2,19.66c-17.99,7.01-38.57,10.52-61.74,10.52
					c-39.03,0-68.45-11.05-88.26-33.16c-19.82-22.1-29.73-51.9-29.73-89.4c0-17.38,2.44-33.53,7.32-48.48
					c4.87-14.93,12.12-27.9,21.72-38.87c9.6-10.98,21.56-19.66,35.9-26.07c14.33-6.4,30.94-9.6,49.85-9.6
					c12.81,0,24.08,0.76,33.84,2.29c9.75,1.53,19.05,3.97,27.9,7.32c0,5.19-0.69,11.2-2.06,18.06c-1.37,6.86-3.28,12.88-5.72,18.06
					c-14.94-5.18-32.01-7.77-51.22-7.77c-23.48,0-41.01,7.77-52.59,23.32c-11.59,15.55-17.38,36.13-17.38,61.74
					c0,29.27,6.55,50.69,19.66,64.25c13.1,13.57,31.1,20.35,53.96,20.35c9.15,0,17.61-0.61,25.38-1.83
					C1409.51,5238.5,1417.35,5236.36,1425.28,5233.31z"/>
				<path d="M1575.73,5279.5c-18.29,0-34.3-3.13-48.02-9.38c-13.72-6.25-25.15-14.86-34.3-25.84
					c-9.15-10.98-15.93-23.93-20.35-38.87c-4.42-14.93-6.63-31.1-6.63-48.48s2.21-33.53,6.63-48.48
					c4.42-14.93,11.2-27.9,20.35-38.87c9.15-10.98,20.58-19.66,34.3-26.07c13.72-6.4,29.73-9.6,48.02-9.6
					c18.29,0,34.3,3.2,48.02,9.6c13.72,6.4,25.15,15.09,34.3,26.07c9.15,10.98,15.93,23.94,20.35,38.87
					c4.42,14.94,6.63,31.1,6.63,48.48s-2.22,33.54-6.63,48.48c-4.42,14.94-11.2,27.9-20.35,38.87
					c-9.15,10.98-20.58,19.59-34.3,25.84C1610.03,5276.37,1594.03,5279.5,1575.73,5279.5z M1575.73,5243.37
					c21.04,0,36.59-7.62,46.65-22.87c10.06-15.24,15.09-36.43,15.09-63.57c0-27.13-5.03-48.25-15.09-63.34
					c-10.06-15.09-25.61-22.64-46.65-22.64c-21.03,0-36.51,7.54-46.42,22.64c-9.91,15.09-14.86,36.21-14.86,63.34
					c0,27.14,4.95,48.32,14.86,63.57C1539.22,5235.75,1554.7,5243.37,1575.73,5243.37z"/>
				<path d="M1744.48,5039.41c3.35-0.61,6.63-1.06,9.83-1.37c3.2-0.3,6.47-0.46,9.83-0.46c3.35,0,6.47,0.16,9.37,0.46
					c2.89,0.31,6.02,0.77,9.37,1.37c0.92,4.57,1.83,10.6,2.74,18.06c0.91,7.47,1.37,13.8,1.37,18.98
					c2.74-5.49,6.17-10.75,10.29-15.78c4.12-5.03,8.99-9.52,14.63-13.49c5.64-3.96,12.12-7.16,19.44-9.6
					c7.32-2.44,15.39-3.66,24.24-3.66c18.29,0,32.39,3.74,42.3,11.2c9.9,7.47,17.45,17.91,22.64,31.33
					c3.04-5.18,6.78-10.36,11.2-15.55c4.42-5.18,9.37-9.75,14.86-13.72c5.49-3.96,11.73-7.16,18.75-9.6
					c7.01-2.44,14.93-3.66,23.78-3.66c27.13,0,46.87,7.62,59.22,22.86c12.35,15.25,18.52,37.81,18.52,67.68v149.54
					c-3.36,0.61-7.17,1.06-11.43,1.37c-4.27,0.3-8.08,0.46-11.43,0.46c-3.36,0-7.09-0.16-11.2-0.46c-4.11-0.31-7.85-0.77-11.2-1.37
					v-136.28c0-21.04-3.2-36.81-9.6-47.33c-6.4-10.52-16.92-15.78-31.56-15.78c-15.55,0-28.12,5.64-37.73,16.92
					c-9.6,11.28-14.4,27.9-14.4,49.85v132.62c-3.36,0.61-7.09,1.06-11.2,1.37c-4.12,0.3-7.85,0.46-11.2,0.46
					c-3.36,0-7.09-0.16-11.2-0.46c-4.11-0.31-7.85-0.77-11.2-1.37v-139.48c0-20.42-3.05-35.74-9.15-45.96
					c-6.1-10.21-15.86-15.32-29.27-15.32c-7.62,0-14.79,1.68-21.49,5.03c-6.71,3.36-12.58,8.39-17.61,15.09
					c-5.03,6.71-9,15.17-11.89,25.38c-2.9,10.22-4.34,22.03-4.34,35.44v119.81c-3.36,0.61-7.09,1.06-11.2,1.37
					c-4.11,0.3-7.85,0.46-11.2,0.46c-3.36,0-7.17-0.16-11.43-0.46c-4.27-0.31-8.08-0.77-11.43-1.37V5039.41z"/>
				<path d="M2151.02,5075.08h-38.41c-1.22-4.87-1.83-10.82-1.83-17.83c0-6.7,0.61-12.65,1.83-17.84h38.41v-16.46
					c0-28.96,7.24-50.99,21.72-66.08c14.48-15.09,35.59-22.64,63.34-22.64c7.62,0,14.33,0.39,20.12,1.14
					c5.79,0.76,11.28,1.91,16.46,3.43c-0.61,7.62-1.45,14.18-2.51,19.66c-1.07,5.49-2.51,11.13-4.34,16.92
					c-3.05-0.61-6.63-1.29-10.75-2.06c-4.11-0.76-9.07-1.14-14.86-1.14c-6.71,0-12.73,0.69-18.06,2.06
					c-5.34,1.37-9.91,3.96-13.72,7.77c-3.82,3.82-6.79,9.15-8.92,16.01c-2.14,6.86-3.2,15.63-3.2,26.29v15.09h59.91
					c0.91,6.1,1.37,12.35,1.37,18.75c0,5.79-0.46,11.43-1.37,16.92h-59.91v198.93c-3.36,0.61-7.09,1.06-11.2,1.37
					c-4.12,0.3-7.85,0.46-11.2,0.46c-3.36,0-7.17-0.16-11.43-0.46c-4.27-0.31-8.08-0.77-11.43-1.37V5075.08z"/>
				<path d="M2388.37,5279.5c-18.29,0-34.3-3.13-48.02-9.38c-13.72-6.25-25.15-14.86-34.3-25.84
					c-9.15-10.98-15.93-23.93-20.35-38.87c-4.42-14.93-6.63-31.1-6.63-48.48s2.21-33.53,6.63-48.48
					c4.42-14.93,11.2-27.9,20.35-38.87c9.15-10.98,20.58-19.66,34.3-26.07c13.72-6.4,29.73-9.6,48.02-9.6
					c18.29,0,34.3,3.2,48.02,9.6c13.72,6.4,25.15,15.09,34.3,26.07c9.15,10.98,15.93,23.94,20.35,38.87
					c4.42,14.94,6.63,31.1,6.63,48.48s-2.22,33.54-6.63,48.48c-4.42,14.94-11.2,27.9-20.35,38.87
					c-9.15,10.98-20.58,19.59-34.3,25.84C2422.67,5276.37,2406.66,5279.5,2388.37,5279.5z M2388.37,5243.37
					c21.04,0,36.59-7.62,46.65-22.87c10.06-15.24,15.09-36.43,15.09-63.57c0-27.13-5.03-48.25-15.09-63.34
					c-10.06-15.09-25.61-22.64-46.65-22.64c-21.03,0-36.51,7.54-46.42,22.64c-9.91,15.09-14.86,36.21-14.86,63.34
					c0,27.14,4.95,48.32,14.86,63.57C2351.86,5235.75,2367.33,5243.37,2388.37,5243.37z"/>
				<path d="M2557.11,5039.41c3.35-0.61,6.55-1.06,9.6-1.37c3.04-0.3,6.25-0.46,9.6-0.46c3.35,0,6.7,0.16,10.06,0.46
					c3.35,0.31,6.4,0.77,9.15,1.37c0.91,4.57,1.83,10.6,2.74,18.06c0.91,7.47,1.37,13.8,1.37,18.98
					c6.4-10.36,14.86-19.36,25.38-26.98c10.52-7.62,24.01-11.43,40.47-11.43c2.44,0,4.95,0.08,7.55,0.23
					c2.59,0.16,4.8,0.39,6.63,0.69c0.61,2.74,1.06,5.64,1.37,8.69c0.3,3.05,0.46,6.25,0.46,9.6c0,3.66-0.23,7.47-0.69,11.43
					c-0.46,3.96-0.99,7.77-1.6,11.43c-2.44-0.61-4.96-0.91-7.54-0.91c-2.59,0-4.65,0-6.17,0c-8.23,0-16.08,1.14-23.55,3.43
					c-7.47,2.29-14.18,6.33-20.12,12.12c-5.94,5.8-10.67,13.72-14.18,23.78c-3.51,10.06-5.26,23.02-5.26,38.87v116.61
					c-3.36,0.61-7.09,1.06-11.2,1.37c-4.12,0.3-7.85,0.46-11.2,0.46c-3.36,0-7.09-0.16-11.2-0.46c-4.12-0.31-8-0.77-11.66-1.37
					V5039.41z"/>
				<path d="M2735.92,5075.54h-35.67l-1.83-6.4l78.66-87.8h3.66v58.08h59.45c1.21,5.19,1.83,10.98,1.83,17.38
					c0,3.36-0.16,6.56-0.46,9.6c-0.31,3.05-0.77,6.1-1.37,9.15h-59.45v107.01c0,12.81,0.53,23.02,1.6,30.64
					c1.07,7.62,2.89,13.49,5.49,17.61c2.59,4.11,6.09,6.86,10.52,8.23c4.42,1.37,9.98,2.06,16.69,2.06c5.18,0,10.06-0.38,14.64-1.14
					c4.57-0.76,8.69-1.6,12.35-2.51c2.13,6.1,3.43,12.35,3.89,18.75c0.46,6.4,0.69,12.05,0.69,16.92c-6.1,1.52-12.5,2.66-19.21,3.43
					c-6.71,0.76-13.88,1.14-21.49,1.14c-21.95,0-39.1-5.33-51.45-16.01c-12.35-10.67-18.52-28.35-18.52-53.05V5075.54z"/>
				<path d="M3155.72,5233.31c2.44,4.27,4.57,9.6,6.4,16.01c1.83,6.4,2.89,12.96,3.2,19.66c-17.99,7.01-38.57,10.52-61.74,10.52
					c-39.03,0-68.45-11.05-88.26-33.16c-19.82-22.1-29.73-51.9-29.73-89.4c0-17.38,2.44-33.53,7.32-48.48
					c4.87-14.93,12.12-27.9,21.72-38.87c9.6-10.98,21.56-19.66,35.9-26.07c14.33-6.4,30.94-9.6,49.85-9.6
					c12.81,0,24.08,0.76,33.84,2.29c9.75,1.53,19.05,3.97,27.9,7.32c0,5.19-0.69,11.2-2.06,18.06c-1.37,6.86-3.28,12.88-5.72,18.06
					c-14.94-5.18-32.01-7.77-51.22-7.77c-23.48,0-41.01,7.77-52.59,23.32c-11.59,15.55-17.38,36.13-17.38,61.74
					c0,29.27,6.55,50.69,19.66,64.25c13.1,13.57,31.1,20.35,53.96,20.35c9.15,0,17.61-0.61,25.38-1.83
					C3139.94,5238.5,3147.79,5236.36,3155.72,5233.31z"/>
				<path d="M3306.17,5279.5c-18.29,0-34.3-3.13-48.02-9.38c-13.72-6.25-25.15-14.86-34.3-25.84s-15.93-23.93-20.35-38.87
					c-4.42-14.93-6.63-31.1-6.63-48.48s2.21-33.53,6.63-48.48c4.42-14.93,11.2-27.9,20.35-38.87c9.15-10.98,20.58-19.66,34.3-26.07
					c13.72-6.4,29.73-9.6,48.02-9.6s34.3,3.2,48.02,9.6c13.72,6.4,25.15,15.09,34.3,26.07c9.15,10.98,15.93,23.94,20.35,38.87
					c4.42,14.94,6.63,31.1,6.63,48.48s-2.22,33.54-6.63,48.48c-4.42,14.94-11.2,27.9-20.35,38.87
					c-9.15,10.98-20.58,19.59-34.3,25.84C3340.47,5276.37,3324.46,5279.5,3306.17,5279.5z M3306.17,5243.37
					c21.04,0,36.59-7.62,46.65-22.87c10.06-15.24,15.09-36.43,15.09-63.57c0-27.13-5.03-48.25-15.09-63.34
					c-10.06-15.09-25.61-22.64-46.65-22.64s-36.51,7.54-46.42,22.64c-9.91,15.09-14.86,36.21-14.86,63.34
					c0,27.14,4.95,48.32,14.86,63.57C3269.66,5235.75,3285.14,5243.37,3306.17,5243.37z"/>
				<path d="M3474.92,5039.41c3.35-0.61,6.63-1.06,9.83-1.37c3.2-0.3,6.47-0.46,9.83-0.46c3.35,0,6.47,0.16,9.38,0.46
					c2.89,0.31,6.02,0.77,9.38,1.37c0.91,4.57,1.83,10.75,2.74,18.52c0.91,7.77,1.37,14.26,1.37,19.43
					c3.04-5.18,6.93-10.36,11.66-15.55c4.72-5.18,10.13-9.83,16.23-13.95c6.09-4.12,13.11-7.47,21.04-10.06
					c7.93-2.59,16.61-3.89,26.07-3.89c26.82,0,46.65,7.7,59.45,23.09c12.8,15.4,19.21,38.19,19.21,68.37v148.62
					c-3.36,0.61-7.17,1.06-11.43,1.37c-4.27,0.3-8.08,0.46-11.43,0.46c-3.36,0-7.09-0.16-11.2-0.46c-4.11-0.31-7.85-0.77-11.2-1.37
					v-136.28c0-21.64-3.36-37.57-10.06-47.79c-6.71-10.21-17.38-15.32-32.01-15.32c-8.54,0-16.62,1.53-24.24,4.57
					c-7.62,3.05-14.33,7.77-20.12,14.18c-5.79,6.4-10.45,14.71-13.95,24.92c-3.51,10.22-5.26,22.49-5.26,36.81v118.9
					c-3.36,0.61-7.09,1.06-11.2,1.37c-4.11,0.3-7.85,0.46-11.2,0.46c-3.36,0-7.17-0.16-11.43-0.46c-4.27-0.31-8.08-0.77-11.43-1.37
					V5039.41z"/>
				<path d="M3705.85,5039.41c4.27-0.61,8.69-1.06,13.26-1.37c4.57-0.3,8.69-0.46,12.35-0.46c3.96,0,8.3,0.16,13.03,0.46
					c4.72,0.31,8.76,0.77,12.12,1.37l64.02,193.44l64.48-193.44c3.35-0.61,7.16-1.06,11.43-1.37c4.27-0.3,8.38-0.46,12.35-0.46
					c3.35,0,7.16,0.16,11.43,0.46c4.26,0.31,8.53,0.77,12.8,1.37l-91.46,234.6c-3.97,0.61-7.93,1.06-11.89,1.37
					c-3.97,0.3-7.62,0.46-10.98,0.46c-3.36,0-6.94-0.16-10.75-0.46c-3.82-0.31-7.55-0.77-11.2-1.37L3705.85,5039.41z"/>
				<path d="M4002.19,5167.91c0.61,25.61,7.24,44.36,19.89,56.25c12.65,11.89,31.33,17.84,56.02,17.84
					c21.64,0,42.22-3.81,61.74-11.43c2.44,4.57,4.42,10.14,5.94,16.69c1.52,6.56,2.44,13.03,2.74,19.44
					c-10.06,4.27-21.11,7.47-33.15,9.6c-12.05,2.13-25.38,3.2-40.01,3.2c-21.34,0-39.64-2.97-54.88-8.92
					c-15.25-5.94-27.82-14.33-37.73-25.15c-9.91-10.82-17.15-23.62-21.72-38.41c-4.57-14.78-6.86-31.02-6.86-48.7
					c0-17.38,2.21-33.61,6.63-48.7c4.42-15.09,11.2-28.2,20.35-39.33c9.15-11.13,20.65-19.96,34.53-26.52
					c13.87-6.55,30.25-9.83,49.16-9.83c16.16,0,30.33,2.74,42.53,8.23c12.19,5.49,22.41,13.03,30.64,22.64
					c8.23,9.6,14.48,21.04,18.75,34.3c4.26,13.26,6.4,27.67,6.4,43.22c0,4.27-0.16,8.77-0.46,13.49c-0.31,4.73-0.62,8.77-0.92,12.12
					H4002.19z M4118.35,5134.07c0-8.53-1.14-16.69-3.43-24.46c-2.29-7.77-5.64-14.56-10.06-20.35
					c-4.42-5.79-10.06-10.44-16.92-13.95c-6.86-3.5-15.02-5.26-24.47-5.26c-18.6,0-32.85,5.65-42.76,16.92
					c-9.91,11.28-15.93,26.98-18.06,47.1H4118.35z"/>
				<path d="M4222.61,5039.41c3.35-0.61,6.63-1.06,9.83-1.37c3.2-0.3,6.47-0.46,9.83-0.46c3.35,0,6.48,0.16,9.38,0.46
					c2.89,0.31,6.02,0.77,9.38,1.37c0.91,4.57,1.83,10.75,2.74,18.52c0.91,7.77,1.37,14.26,1.37,19.43
					c3.04-5.18,6.93-10.36,11.66-15.55c4.72-5.18,10.13-9.83,16.23-13.95c6.09-4.12,13.11-7.47,21.04-10.06
					c7.92-2.59,16.61-3.89,26.07-3.89c26.82,0,46.65,7.7,59.45,23.09c12.8,15.4,19.21,38.19,19.21,68.37v148.62
					c-3.36,0.61-7.17,1.06-11.43,1.37c-4.27,0.3-8.08,0.46-11.43,0.46c-3.36,0-7.09-0.16-11.2-0.46c-4.11-0.31-7.85-0.77-11.2-1.37
					v-136.28c0-21.64-3.36-37.57-10.06-47.79c-6.71-10.21-17.38-15.32-32.01-15.32c-8.54,0-16.62,1.53-24.24,4.57
					c-7.62,3.05-14.33,7.77-20.12,14.18c-5.79,6.4-10.45,14.71-13.95,24.92c-3.51,10.22-5.26,22.49-5.26,36.81v118.9
					c-3.36,0.61-7.09,1.06-11.2,1.37c-4.11,0.3-7.85,0.46-11.2,0.46c-3.36,0-7.17-0.16-11.43-0.46c-4.27-0.31-8.08-0.77-11.43-1.37
					V5039.41z"/>
				<path d="M4500.65,5075.08h-29.73c-0.61-2.44-1.07-5.26-1.37-8.46c-0.31-3.2-0.46-6.32-0.46-9.38c0-3.04,0.15-6.17,0.46-9.38
					c0.3-3.2,0.76-6.02,1.37-8.46h74.08v234.6c-3.36,0.61-7.09,1.06-11.2,1.37c-4.12,0.3-7.85,0.46-11.2,0.46
					c-3.05,0-6.63-0.16-10.75-0.46c-4.12-0.31-7.85-0.77-11.21-1.37V5075.08z M4490.59,4987.73c-0.61-3.66-0.99-7.62-1.14-11.89
					c-0.16-4.27-0.23-8.08-0.23-11.43c0-3.35,0.07-7.16,0.23-11.43c0.15-4.27,0.53-8.07,1.14-11.43c3.96-0.61,8.23-1.07,12.81-1.37
					c4.57-0.3,8.53-0.46,11.89-0.46c3.35,0,7.32,0.16,11.89,0.46c4.57,0.31,8.69,0.76,12.35,1.37c0.61,3.36,0.98,7.17,1.14,11.43
					c0.15,4.27,0.23,8.08,0.23,11.43c0,3.36-0.08,7.17-0.23,11.43c-0.16,4.27-0.54,8.23-1.14,11.89c-3.66,0.62-7.7,1.07-12.12,1.37
					c-4.42,0.31-8.31,0.46-11.66,0.46c-3.66,0-7.77-0.15-12.35-0.46C4498.82,4988.81,4494.55,4988.35,4490.59,4987.73z"/>
				<path d="M4652.47,5167.91c0.61,25.61,7.24,44.36,19.89,56.25c12.65,11.89,31.33,17.84,56.02,17.84
					c21.64,0,42.22-3.81,61.74-11.43c2.44,4.57,4.42,10.14,5.94,16.69c1.52,6.56,2.44,13.03,2.74,19.44
					c-10.06,4.27-21.11,7.47-33.15,9.6c-12.05,2.13-25.38,3.2-40.01,3.2c-21.34,0-39.64-2.97-54.88-8.92
					c-15.25-5.94-27.82-14.33-37.73-25.15c-9.91-10.82-17.15-23.62-21.72-38.41c-4.57-14.78-6.86-31.02-6.86-48.7
					c0-17.38,2.21-33.61,6.63-48.7c4.42-15.09,11.2-28.2,20.35-39.33c9.15-11.13,20.65-19.96,34.53-26.52
					c13.87-6.55,30.25-9.83,49.16-9.83c16.16,0,30.33,2.74,42.53,8.23c12.19,5.49,22.41,13.03,30.64,22.64
					c8.23,9.6,14.48,21.04,18.75,34.3c4.27,13.26,6.4,27.67,6.4,43.22c0,4.27-0.16,8.77-0.46,13.49c-0.31,4.73-0.62,8.77-0.92,12.12
					H4652.47z M4768.63,5134.07c0-8.53-1.14-16.69-3.43-24.46c-2.29-7.77-5.64-14.56-10.06-20.35
					c-4.42-5.79-10.06-10.44-16.92-13.95c-6.86-3.5-15.02-5.26-24.47-5.26c-18.6,0-32.85,5.65-42.76,16.92
					c-9.91,11.28-15.93,26.98-18.06,47.1H4768.63z"/>
				<path d="M4872.89,5039.41c3.35-0.61,6.63-1.06,9.83-1.37c3.2-0.3,6.47-0.46,9.83-0.46c3.35,0,6.47,0.16,9.38,0.46
					c2.89,0.31,6.02,0.77,9.37,1.37c0.91,4.57,1.83,10.75,2.74,18.52c0.91,7.77,1.37,14.26,1.37,19.43
					c3.04-5.18,6.93-10.36,11.66-15.55c4.72-5.18,10.13-9.83,16.23-13.95c6.09-4.12,13.11-7.47,21.04-10.06
					c7.92-2.59,16.61-3.89,26.07-3.89c26.82,0,46.65,7.7,59.45,23.09c12.8,15.4,19.21,38.19,19.21,68.37v148.62
					c-3.36,0.61-7.17,1.06-11.43,1.37c-4.27,0.3-8.08,0.46-11.43,0.46c-3.36,0-7.09-0.16-11.21-0.46c-4.11-0.31-7.85-0.77-11.2-1.37
					v-136.28c0-21.64-3.36-37.57-10.06-47.79c-6.71-10.21-17.38-15.32-32.01-15.32c-8.54,0-16.62,1.53-24.24,4.57
					c-7.62,3.05-14.33,7.77-20.12,14.18c-5.79,6.4-10.45,14.71-13.95,24.92c-3.51,10.22-5.26,22.49-5.26,36.81v118.9
					c-3.36,0.61-7.09,1.06-11.21,1.37c-4.11,0.3-7.85,0.46-11.2,0.46c-3.36,0-7.17-0.16-11.43-0.46c-4.27-0.31-8.08-0.77-11.43-1.37
					V5039.41z"/>
				<path d="M5293.61,5233.31c2.44,4.27,4.57,9.6,6.4,16.01c1.83,6.4,2.89,12.96,3.2,19.66c-17.99,7.01-38.57,10.52-61.74,10.52
					c-39.03,0-68.45-11.05-88.26-33.16c-19.82-22.1-29.73-51.9-29.73-89.4c0-17.38,2.44-33.53,7.32-48.48
					c4.87-14.93,12.12-27.9,21.72-38.87c9.6-10.98,21.56-19.66,35.9-26.07c14.33-6.4,30.94-9.6,49.85-9.6
					c12.81,0,24.08,0.76,33.84,2.29c9.75,1.53,19.05,3.97,27.9,7.32c0,5.19-0.69,11.2-2.06,18.06c-1.37,6.86-3.28,12.88-5.71,18.06
					c-14.94-5.18-32.01-7.77-51.22-7.77c-23.48,0-41.01,7.77-52.59,23.32c-11.59,15.55-17.38,36.13-17.38,61.74
					c0,29.27,6.55,50.69,19.66,64.25c13.1,13.57,31.1,20.35,53.96,20.35c9.15,0,17.61-0.61,25.38-1.83
					C5277.84,5238.5,5285.68,5236.36,5293.61,5233.31z"/>
				<path d="M5382.79,5167.91c0.61,25.61,7.24,44.36,19.89,56.25c12.65,11.89,31.33,17.84,56.02,17.84
					c21.64,0,42.22-3.81,61.74-11.43c2.44,4.57,4.42,10.14,5.94,16.69c1.52,6.56,2.44,13.03,2.74,19.44
					c-10.06,4.27-21.11,7.47-33.15,9.6c-12.05,2.13-25.38,3.2-40.01,3.2c-21.34,0-39.64-2.97-54.88-8.92
					c-15.25-5.94-27.82-14.33-37.73-25.15c-9.91-10.82-17.15-23.62-21.72-38.41c-4.57-14.78-6.86-31.02-6.86-48.7
					c0-17.38,2.21-33.61,6.63-48.7c4.42-15.09,11.2-28.2,20.35-39.33c9.15-11.13,20.65-19.96,34.53-26.52
					c13.87-6.55,30.25-9.83,49.16-9.83c16.16,0,30.33,2.74,42.53,8.23c12.19,5.49,22.41,13.03,30.64,22.64
					c8.23,9.6,14.48,21.04,18.75,34.3c4.26,13.26,6.4,27.67,6.4,43.22c0,4.27-0.16,8.77-0.46,13.49c-0.31,4.73-0.61,8.77-0.92,12.12
					H5382.79z M5498.94,5134.07c0-8.53-1.14-16.69-3.43-24.46c-2.29-7.77-5.64-14.56-10.06-20.35
					c-4.42-5.79-10.06-10.44-16.92-13.95c-6.86-3.5-15.02-5.26-24.47-5.26c-18.6,0-32.85,5.65-42.76,16.92
					c-9.91,11.28-15.93,26.98-18.06,47.1H5498.94z"/>
			</g>
		</g>
		<path d="M2869.3,5163.13c0.72-20.57,17.2-36.44,37.47-36.08c19.56,0.35,37.28,17.9,37.47,37.12c0.2,20.07-19.98,39.08-40.1,37.76
			C2883.54,5200.58,2868.57,5183.92,2869.3,5163.13z"/>
		<path d="M1142.36,5163.13c0.72-20.57,17.2-36.44,37.47-36.08c19.56,0.35,37.28,17.9,37.47,37.12c0.2,20.07-19.98,39.08-40.1,37.76
			C1156.6,5200.58,1141.64,5183.92,1142.36,5163.13z"/>
	</g>
	<text transform="matrix(1 0 0 1 4120.8477 4274.4023)" class="st3 st4">vv</text>
	<g>
		<path d="M230,4475.63c0-48.64,10.41-88.84,31.28-120.61c20.84-31.76,47.65-57.08,80.42-75.94c32.75-18.85,69-32.01,108.71-39.46
			c39.71-7.43,78.42-11.17,116.16-11.17h90.83c-1.01-17.86-5.96-32.75-14.9-44.67s-20.34-21.1-34.24-27.56
			c-13.9-6.45-29.28-10.92-46.16-13.39s-34.26-3.73-52.12-3.73c-23.84,0-51.64,2.75-83.4,8.21c-31.78,5.46-64.53,14.15-98.28,26.05
			c-8.94-16.88-16.64-32.26-23.09-46.16c-6.46-13.9-11.42-28.04-14.9-42.44c-3.48-14.4-5.96-29.28-7.45-44.67
			c-1.49-15.39-2.23-33.02-2.23-52.87c47.65-15.87,95.07-27.79,142.21-35.73s89.59-11.92,127.33-11.92
			c51.62,0,98.28,6.21,139.99,18.62c41.69,12.41,77.18,31.51,106.47,57.33s51.87,58.82,67.76,99.03
			c15.89,40.22,23.84,88.12,23.84,143.7v436.31c-37.74,10.93-83.4,21.85-137.01,32.77c-53.61,10.92-110.2,16.37-169.77,16.37
			c-51.64,0-99.03-4.72-142.21-14.15c-43.2-9.43-80.18-24.56-110.95-45.41c-30.77-20.84-54.85-48.39-72.23-82.64
			C238.67,4567.23,230,4525.29,230,4475.63z M581.45,4559.02c8.94,0,21.85-0.99,38.73-2.96c16.88-1.97,29.28-3.97,37.22-5.96
			v-163.81H572.5c-34.76,0-64.04,7.45-87.87,22.33c-23.82,14.9-35.73,35.75-35.73,62.55c0,19.86,4.45,35.49,13.39,46.91
			c8.94,11.42,20.11,20.09,33.52,26.05c13.39,5.96,27.79,9.95,43.18,11.92C554.39,4558.03,568.54,4559.02,581.45,4559.02z"/>
		<path d="M1360.27,3942.52c43.68,0,87.36,3.73,131.04,11.17c43.68,7.45,83.14,23.09,118.39,46.91
			c35.24,23.82,64.04,58.08,86.38,102.75c22.33,44.67,33.5,103.74,33.5,177.2v445.25c-25.82,4.96-49.14,8.19-69.98,9.69
			c-20.86,1.47-39.23,2.23-55.1,2.23c-16.88,0-35.75-0.75-56.59-2.23c-20.86-1.51-44.18-4.74-69.98-9.69v-418.45
			c0-52.6-9.93-90.34-29.79-113.18c-19.86-22.84-50.14-34.26-90.85-34.26c-10.92,0-22.59,1.01-34.99,2.98
			c-12.42,1.99-20.11,3.99-23.09,5.96v556.95c-25.82,4.96-49.14,8.19-69.98,9.69c-20.86,1.47-39.23,2.23-55.1,2.23
			c-16.88,0-35.75-0.75-56.59-2.23c-20.86-1.51-44.18-4.74-69.98-9.69v-731.17c34.74-11.92,76.93-23.57,126.57-34.99
			C1223.75,3948.23,1285.8,3942.52,1360.27,3942.52z"/>
		<path d="M2320.77,3957.41c7.94-1.97,24.33-3.97,49.14-5.96c24.81-1.97,50.15-2.98,75.96-2.98c32.75,0,63.27,1.01,91.56,2.98
			c28.3,1.99,47.9,3.99,58.83,5.96l-291.88,766.91c-20.86,4.96-41.96,8.19-63.31,9.7c-21.35,1.47-41.94,2.23-61.78,2.23
			c-19.86,0-40.22-0.75-61.06-2.23c-20.86-1.51-39.71-4.74-56.59-9.7l-285.91-766.91c10.92-1.97,30.52-3.97,58.82-5.96
			c28.3-1.97,58.82-2.98,91.58-2.98c25.82,0,51.62,1.01,77.43,2.98c25.82,1.99,42.69,3.99,50.63,5.96l135.52,461.65
			c22.84-76.45,44.92-153.88,66.27-232.3C2277.32,4108.33,2298.92,4031.88,2320.77,3957.41z"/>
		<path d="M2618.6,4475.63c0-48.64,10.41-88.84,31.28-120.61c20.84-31.76,47.65-57.08,80.42-75.94
			c32.75-18.85,69-32.01,108.71-39.46c39.71-7.43,78.42-11.17,116.16-11.17h90.83c-1.01-17.86-5.96-32.75-14.9-44.67
			s-20.34-21.1-34.24-27.56c-13.9-6.45-29.28-10.92-46.16-13.39c-16.88-2.48-34.26-3.73-52.12-3.73c-23.84,0-51.64,2.75-83.4,8.21
			c-31.78,5.46-64.53,14.15-98.28,26.05c-8.94-16.88-16.64-32.26-23.09-46.16c-6.46-13.9-11.42-28.04-14.9-42.44
			s-5.96-29.28-7.45-44.67c-1.49-15.39-2.23-33.02-2.23-52.87c47.65-15.87,95.07-27.79,142.21-35.73s89.59-11.92,127.33-11.92
			c51.62,0,98.28,6.21,139.99,18.62c41.69,12.41,77.18,31.51,106.47,57.33c29.28,25.82,51.87,58.82,67.76,99.03
			c15.89,40.22,23.84,88.12,23.84,143.7v436.31c-37.74,10.93-83.4,21.85-137.01,32.77s-110.2,16.37-169.77,16.37
			c-51.64,0-99.03-4.72-142.21-14.15c-43.2-9.43-80.18-24.56-110.95-45.41c-30.77-20.84-54.85-48.39-72.23-82.64
			S2618.6,4525.29,2618.6,4475.63z M2970.04,4559.02c8.94,0,21.85-0.99,38.73-2.96c16.88-1.97,29.28-3.97,37.22-5.96v-163.81h-84.89
			c-34.76,0-64.04,7.45-87.87,22.33c-23.82,14.9-35.73,35.75-35.73,62.55c0,19.86,4.45,35.49,13.39,46.91
			c8.94,11.42,20.11,20.09,33.52,26.05c13.39,5.96,27.79,9.95,43.18,11.92C2942.99,4558.03,2957.13,4559.02,2970.04,4559.02z"/>
		<path d="M3868,3957.41c7.94-1.97,23.09-3.97,45.42-5.96c22.33-1.97,46.41-2.98,72.23-2.98c32.75,0,62.03,1.01,87.85,2.98
			c25.82,1.99,44.18,3.99,55.12,5.96l-287.4,498.86v269.54c-25.82,3.97-49.16,6.95-70,8.94c-20.86,1.98-39.71,2.98-56.59,2.98
			c-16.88,0-35.75-1.01-56.59-2.98c-20.84-1.99-43.68-4.97-68.49-8.94v-269.54l-285.91-498.86c10.92-1.97,30.02-3.97,57.33-5.96
			c27.29-1.97,57.33-2.98,90.09-2.98c25.82,0,51.13,1.01,75.94,2.98c24.81,1.99,41.2,3.99,49.14,5.96l145.95,293.36L3868,3957.41z"
			/>
		<path d="M4150.95,4475.63c0-48.64,10.41-88.84,31.28-120.61c20.84-31.76,47.65-57.08,80.42-75.94
			c32.75-18.85,69-32.01,108.71-39.46c39.71-7.43,78.42-11.17,116.16-11.17h90.83c-1.01-17.86-5.96-32.75-14.9-44.67
			s-20.34-21.1-34.24-27.56c-13.9-6.45-29.28-10.92-46.16-13.39c-16.88-2.48-34.26-3.73-52.12-3.73c-23.84,0-51.64,2.75-83.4,8.21
			c-31.78,5.46-64.53,14.15-98.28,26.05c-8.94-16.88-16.64-32.26-23.09-46.16c-6.46-13.9-11.42-28.04-14.9-42.44
			c-3.48-14.4-5.96-29.28-7.45-44.67c-1.49-15.39-2.23-33.02-2.23-52.87c47.65-15.87,95.07-27.79,142.21-35.73
			s89.59-11.92,127.33-11.92c51.62,0,98.28,6.21,139.99,18.62c41.69,12.41,77.18,31.51,106.47,57.33s51.87,58.82,67.76,99.03
			c15.89,40.22,23.84,88.12,23.84,143.7v436.31c-37.74,10.93-83.4,21.85-137.01,32.77c-53.61,10.92-110.2,16.37-169.77,16.37
			c-51.64,0-99.03-4.72-142.21-14.15c-43.2-9.43-80.18-24.56-110.95-45.41c-30.77-20.84-54.85-48.39-72.23-82.64
			C4159.62,4567.23,4150.95,4525.29,4150.95,4475.63z M4502.4,4559.02c8.94,0,21.85-0.99,38.73-2.96
			c16.88-1.97,29.28-3.97,37.22-5.96v-163.81h-84.89c-34.76,0-64.04,7.45-87.87,22.33c-23.82,14.9-35.73,35.75-35.73,62.55
			c0,19.86,4.45,35.49,13.39,46.91s20.11,20.09,33.52,26.05c13.39,5.96,27.79,9.95,43.18,11.92
			C4475.34,4558.03,4489.49,4559.02,4502.4,4559.02z"/>
		<path d="M4929.78,4475.63c0-48.64,10.41-88.84,31.28-120.61c20.84-31.76,47.65-57.08,80.42-75.94
			c32.75-18.85,69-32.01,108.71-39.46c39.71-7.43,78.42-11.17,116.16-11.17h90.83c-1.01-17.86-5.96-32.75-14.9-44.67
			s-20.34-21.1-34.24-27.56c-13.9-6.45-29.28-10.92-46.16-13.39s-34.26-3.73-52.12-3.73c-23.84,0-51.63,2.75-83.4,8.21
			c-31.78,5.46-64.53,14.15-98.28,26.05c-8.94-16.88-16.64-32.26-23.09-46.16c-6.46-13.9-11.42-28.04-14.9-42.44
			s-5.96-29.28-7.45-44.67c-1.49-15.39-2.23-33.02-2.23-52.87c47.65-15.87,95.07-27.79,142.21-35.73
			c47.15-7.94,89.59-11.92,127.33-11.92c51.62,0,98.28,6.21,139.99,18.62c41.69,12.41,77.18,31.51,106.47,57.33
			c29.28,25.82,51.87,58.82,67.76,99.03c15.89,40.22,23.84,88.12,23.84,143.7v436.31c-37.74,10.93-83.4,21.85-137.01,32.77
			c-53.61,10.92-110.2,16.37-169.77,16.37c-51.63,0-99.03-4.72-142.21-14.15c-43.2-9.43-80.18-24.56-110.95-45.41
			c-30.77-20.84-54.85-48.39-72.23-82.64S4929.78,4525.29,4929.78,4475.63z M5281.22,4559.02c8.94,0,21.85-0.99,38.73-2.96
			c16.88-1.97,29.28-3.97,37.22-5.96v-163.81h-84.89c-34.76,0-64.04,7.45-87.87,22.33c-23.82,14.9-35.73,35.75-35.73,62.55
			c0,19.86,4.45,35.49,13.39,46.91c8.94,11.42,20.11,20.09,33.52,26.05c13.39,5.96,27.79,9.95,43.18,11.92
			C5254.17,4558.03,5268.31,4559.02,5281.22,4559.02z"/>
	</g>
</g>
</svg>
